PathFileType	4	(X/Y/Z)	C:/Users/opensim2020/Desktop/walking_exp_matlab/subject06_walking18_straight_03.trc																																																																																																																																											
DataRate	CameraRate	NumFrames	NumMarkers	Units	OrigDataRate	OrigDataStartFrame	OrigNumFrames																																																																																																																																							
100	100	4	47	mm	100	3392	309																																																																																																																																							
Frame#	Time	LFHD			RFHD			LBHD			RBHD			C7			T10			CLAV			STRN			RBAK			LSHO			LUPA			LELB			LFRM			LWRA			LWRB			LFIN			RSHO			RUPA			RELB			RFRM			RWRA			RWRB			RFIN			LASI			RASI			LPSI			RPSI			LTHI			LKNE			LTIB			LANK			LHEE			LTOE			RTHI			RKNE			RTIB			RANK			RHEE			RTOE			*39			*40			*41			*42			*43			*44			*45			*46		
		X1	Y1	Z1	X2	Y2	Z2	X3	Y3	Z3	X4	Y4	Z4	X5	Y5	Z5	X6	Y6	Z6	X7	Y7	Z7	X8	Y8	Z8	X9	Y9	Z9	X10	Y10	Z10	X11	Y11	Z11	X12	Y12	Z12	X13	Y13	Z13	X14	Y14	Z14	X15	Y15	Z15	X16	Y16	Z16	X17	Y17	Z17	X18	Y18	Z18	X19	Y19	Z19	X20	Y20	Z20	X21	Y21	Z21	X22	Y22	Z22	X23	Y23	Z23	X24	Y24	Z24	X25	Y25	Z25	X26	Y26	Z26	X27	Y27	Z27	X28	Y28	Z28	X29	Y29	Z29	X30	Y30	Z30	X31	Y31	Z31	X32	Y32	Z32	X33	Y33	Z33	X34	Y34	Z34	X35	Y35	Z35	X36	Y36	Z36	X37	Y37	Z37	X38	Y38	Z38	X39	Y39	Z39	X40	Y40	Z40	X41	Y41	Z41	X42	Y42	Z42	X43	Y43	Z43	X44	Y44	Z44	X45	Y45	Z45	X46	Y46	Z46	X47	Y47	Z47
																																																																																																																																														
78	0.77	-265.62753	1677.3468	1417.85864	-261.69153	1662.23022	1548.62268	-397.03983	1618.94165	1419.06506	-391.91101	1608.97864	1548.24329	-392.95551	1463.26477	1471.36719	-436.39523	1135.89734	1474.43018	-283.18753	1385.25708	1468.58105	-247.20828	1210.60718	1460.15857	-466.04242	1294.67688	1552.30078	-340.60321	1419.72827	1307.40991	-363.76672	1220.42542	1230.17542	-377.9624	1109.78357	1215.72986	-364.04709	961.54645	1185.42871	-307.6864	841.78979	1217.30261	-370.15781	842.43219	1183.24158	-333.40796	759.57361	1175.28992	-322.46313	1414.88635	1629.953	-351.5119	1215.04431	1718.58569	-336.94058	1093.53882	1727.85071	-308.03796	976.51813	1739.26624	-234.5947	847.20685	1697.23267	-284.05191	841.10449	1741.36841	-237.83287	770.7074	1738.29346	-259.76978	979.8468	1360.97107	-259.60135	977.16443	1581.62256	-419.49435	1001.87677	1387.00757	-412.34146	1003.21857	1555.70471	-279.29736	664.74292	1289.65869	-241.84526	504.68817	1312.00439	-302.52756	258.40753	1313.13684	-319.77142	85.51957	1346.10022	-354.63141	69.4163	1396.4259	-181.36948	51.06508	1331.59863	-325.3049	640.43341	1623.1825	-329.32187	514.78131	1597.83337	-404.81143	256.81076	1590.76758	-440.75061	74.36845	1539.18994	-483.14706	51.70947	1494.92383	-288.57092	37.36198	1537.98242	-365.52002	1710.61011	1480.82666	NaN	NaN	NaN	NaN	NaN	NaN	NaN	NaN	NaN	NaN	NaN	NaN	NaN	NaN	NaN	NaN	NaN	NaN	NaN	NaN	NaN
79	0.78	-259.72595	1676.75061	1417.30994	-255.73546	1661.78613	1548.06934	-391.21042	1618.54199	1418.69836	-385.99203	1608.79175	1547.87109	-387.61145	1462.88965	1471.38611	-430.67438	1135.43347	1474.91724	-277.48633	1384.78638	1468.3606	-241.52359	1210.12512	1460.13159	-460.29865	1294.31702	1552.49658	-335.32077	1419.23401	1307.27332	-359.5636	1220.11694	1230.05066	-374.47247	1109.56885	1215.72083	-361.73163	961.16406	1185.62769	-306.12704	841.18738	1217.31335	-369.09357	842.11688	1183.61707	-332.80267	758.98346	1175.51685	-316.67709	1414.56934	1629.72375	-345.17633	1214.87561	1718.57288	-330.21741	1093.38562	1728.01306	-300.59711	976.5788	1739.3147	-226.39357	847.79956	1696.87183	-275.63562	841.3399	1741.20654	-228.71356	771.21075	1738.0033	-254.22681	979.52985	1361.16296	-253.89554	976.56946	1581.91394	-413.92737	1001.49878	1387.27869	-406.24265	1002.72858	1555.91895	-273.40952	664.66309	1289.46277	-234.32588	504.97995	1311.90735	-287.07587	256.80167	1313.07007	-297.73883	83.33138	1346.46008	-333.03726	66.91097	1396.38672	-158.97383	51.80928	1332.88989	-320.80511	639.74603	1622.70435	-325.84036	514.14862	1597.76392	-403.11719	256.67279	1590.50732	-440.54248	74.45831	1539.05908	-483.12796	51.94125	1494.79517	-288.53143	37.32256	1538.02063	-359.4873	1710.27295	1480.29358	NaN	NaN	NaN	NaN	NaN	NaN	NaN	NaN	NaN	NaN	NaN	NaN	NaN	NaN	NaN	NaN	NaN	NaN	NaN	NaN	NaN
80	0.79	-253.73511	1676.18164	1416.68579	-249.76059	1661.3418	1547.4314	-385.39084	1618.19238	1418.28662	-380.07993	1608.56555	1547.42822	-381.89539	1462.37183	1471.12341	-424.67667	1134.85144	1475.30054	-271.77658	1384.35168	1468.02856	-235.75357	1209.65369	1459.99487	-454.26636	1293.78589	1552.49097	-330.09113	1418.6731	1307.06128	-355.01563	1219.59302	1230.36426	-370.8786	1109.28406	1215.84985	-359.10098	960.70184	1185.86121	-304.33032	840.52356	1217.47583	-367.37122	841.73828	1184.08203	-331.93262	758.33783	1175.99121	-310.85782	1414.28845	1629.44263	-338.8591	1214.64758	1718.57886	-323.52896	1093.20642	1728.12073	-292.99023	976.56232	1739.3064	-218.26025	848.36401	1696.49353	-267.37384	841.64014	1740.99927	-220.11124	771.78009	1737.42004	-248.5535	979.13684	1361.22839	-248.00443	975.86493	1582.0415	-408.31689	1001.10223	1387.67969	-400.65591	1002.29266	1556.34497	-267.39572	664.50354	1289.17444	-226.97676	505.30945	1311.75305	-271.64786	255.42964	1312.9707	-276.2641	81.66584	1346.19055	-311.33014	64.65121	1396.05823	-136.27242	52.4822	1334.15503	-316.25262	639.07037	1622.55347	-322.37006	513.49048	1597.80688	-401.53015	256.54068	1590.26917	-440.34061	74.56228	1538.9585	-483.04678	52.12133	1494.66089	-288.43732	37.27849	1538.03223	-353.4209	1709.88086	1479.68433	NaN	NaN	NaN	NaN	NaN	NaN	NaN	NaN	NaN	NaN	NaN	NaN	NaN	NaN	NaN	NaN	NaN	NaN	NaN	NaN	NaN
81	0.8	-247.77756	1675.54053	1416.00806	-243.73482	1660.88318	1546.79443	-379.43283	1617.80371	1417.72803	-374.12009	1608.30969	1546.95911	-375.97769	1461.81152	1470.8363	-418.80862	1134.33508	1475.70081	-265.99512	1383.83008	1467.62305	-229.93909	1209.12646	1459.74463	-448.47726	1293.20544	1552.52026	-324.65414	1418.09045	1306.75452	-350.79205	1219.31763	1229.83337	-366.97202	1108.96167	1215.84631	-356.24902	960.23199	1186.13257	-301.72815	839.86859	1217.67444	-365.5784	841.31232	1184.59949	-330.65179	757.65234	1176.68616	-305.02887	1413.96631	1629.05835	-332.54297	1214.4314	1718.53223	-316.78918	1093.03088	1728.05847	-285.83139	976.53723	1739.10657	-210.17702	848.87946	1696.02075	-259.0972	841.70679	1740.65417	-211.43466	772.24902	1736.98633	-242.7744	978.63538	1361.16357	-242.11723	975.13062	1582.04102	-402.94537	1000.8999	1388.05725	-394.33878	1001.8017	1556.62671	-261.75452	664.31561	1289.03186	-219.85152	505.63138	1311.58594	-256.16507	254.34741	1312.71167	-255.0238	80.47448	1345.8291	-290.18362	62.96789	1395.59314	-113.81429	53.80907	1335.36743	-311.98013	638.46777	1622.59448	-318.85382	512.80475	1597.90063	-399.85303	256.4097	1590.10913	-440.09738	74.71072	1538.89001	-483.00031	52.41478	1494.64368	-288.3996	37.10006	1537.98474	-347.31982	1709.5387	1479.04175	NaN	NaN	NaN	NaN	NaN	NaN	NaN	NaN	NaN	NaN	NaN	NaN	NaN	NaN	NaN	NaN	NaN	NaN	NaN	NaN	NaN
